<svg width="278.88" height="78.75" xmlns="http://www.w3.org/2000/svg">
 <metadata id="metadata8">image/svg+xml</metadata>
 <g>
  <g id="g10">
   <path d="m63.75,48.75l-33.75,0l0,-15l33.75,0l0,15z" id="path12" fill-rule="nonzero" fill="#ec008c"/>
   <path d="m60,45l-26.25,0l0,-15l26.25,0l0,15z" id="path14" fill-rule="nonzero" fill="#ec008c"/>
   <path d="m56.25,48.75l-3.75,0l0,-3.75l3.75,0l0,3.75z" id="path16" fill-rule="nonzero" fill="#0a0a0a"/>
   <path d="m41.25,48.75l-3.75,0l0,-3.75l3.75,0l0,3.75z" id="path18" fill-rule="nonzero" fill="#0a0a0a"/>
   <path d="m63.75,71.25l-33.75,0l0,-22.5l33.75,0l0,22.5z" id="path20" fill-rule="nonzero" fill="#e6e6e6"/>
   <path d="m56.25,75l-18.75,0l0,-22.5l18.75,0l0,22.5z" id="path22" fill-rule="nonzero" fill="#e6e6e6"/>
   <path d="m48.75,56.25l-3.75,0l0,-15l3.75,0l0,15z" id="path24" fill-rule="nonzero" fill="#e6e6e6"/>
   <path d="m26.25,78.75l7.5,0l0,-37.5l-7.5,0l0,37.5z" id="path26" fill-rule="nonzero" fill="#2a2ed1"/>
   <path d="m22.5,78.75l7.5,0l0,-33.75l-7.5,0l0,33.75z" id="path28" fill-rule="nonzero" fill="#2a2ed1"/>
   <path d="m26.25,75l-7.5,0l0,-26.25l7.5,0l0,26.25z" id="path30" fill-rule="nonzero" fill="#2a2ed1"/>
   <path d="m22.5,71.25l-7.5,0l0,-18.75l7.5,0l0,18.75z" id="path32" fill-rule="nonzero" fill="#2a2ed1"/>
   <path d="m18.75,67.5l-7.5,0l0,-11.25l7.5,0l0,11.25z" id="path34" fill-rule="nonzero" fill="#2a2ed1"/>
   <path d="m41.25,7.5l7.49875,0l0,-7.5l-7.49875,0l0,7.5z" id="path36" fill-rule="nonzero" fill="#0a0a0a"/>
   <path d="m0,48.75l7.5,0l0,-7.49875l-7.5,0l0,7.49875z" id="path38" fill-rule="nonzero" fill="#0a0a0a"/>
   <path d="m11.25,45l-7.5,0l0,-7.5l7.5,0l0,7.5z" id="path40" fill-rule="nonzero" fill="#0a0a0a"/>
   <path d="m15,41.25l-7.5,0l0,-7.5l7.5,0l0,7.5z" id="path42" fill-rule="nonzero" fill="#0a0a0a"/>
   <path d="m18.75,37.5l-7.5,0l0,-7.5l7.5,0l0,7.5z" id="path44" fill-rule="nonzero" fill="#0a0a0a"/>
   <path d="m22.5,33.75l-7.5,0l0,-7.5l7.5,0l0,7.5z" id="path46" fill-rule="nonzero" fill="#0a0a0a"/>
   <path d="m26.25,30l-7.5,0l0,-7.5l7.5,0l0,7.5z" id="path48" fill-rule="nonzero" fill="#0a0a0a"/>
   <path d="m22.5,30l-7.5,0l0,-18.75l7.5,0l0,18.75z" id="path50" fill-rule="nonzero" fill="#0a0a0a"/>
   <path d="m30,26.25l-7.5,0l0,-7.5l7.5,0l0,7.5z" id="path52" fill-rule="nonzero" fill="#0a0a0a"/>
   <path d="m33.75,22.5l-7.5,0l0,-7.5l7.5,0l0,7.5z" id="path54" fill-rule="nonzero" fill="#0a0a0a"/>
   <path d="m37.5,18.75l-7.5,0l0,-7.5l7.5,0l0,7.5z" id="path56" fill-rule="nonzero" fill="#0a0a0a"/>
   <path d="m41.25,15l-7.5,0l0,-7.5l7.5,0l0,7.5z" id="path58" fill-rule="nonzero" fill="#0a0a0a"/>
   <path d="m45,11.25l-7.5,0l0,-7.5l7.5,0l0,7.5z" id="path60" fill-rule="nonzero" fill="#0a0a0a"/>
   <path d="m45,7.5l7.5,0l0,-7.5l-7.5,0l0,7.5z" id="path62" fill-rule="nonzero" fill="#0a0a0a"/>
   <path d="m86.25,48.75l7.5,0l0,-7.5l-7.5,0l0,7.5z" id="path64" fill-rule="nonzero" fill="#0a0a0a"/>
   <path d="m82.5,45l7.5,0l0,-7.5l-7.5,0l0,7.5z" id="path66" fill-rule="nonzero" fill="#0a0a0a"/>
   <path d="m78.75,41.25l7.5,0l0,-7.5l-7.5,0l0,7.5z" id="path68" fill-rule="nonzero" fill="#0a0a0a"/>
   <path d="m75,37.5l7.5,0l0,-7.5l-7.5,0l0,7.5z" id="path70" fill-rule="nonzero" fill="#0a0a0a"/>
   <path d="m71.25,33.75l7.5,0l0,-7.5l-7.5,0l0,7.5z" id="path72" fill-rule="nonzero" fill="#0a0a0a"/>
   <path d="m67.5,30l7.5,0l0,-7.5l-7.5,0l0,7.5z" id="path74" fill-rule="nonzero" fill="#0a0a0a"/>
   <path d="m63.75,26.25l7.5,0l0,-7.5l-7.5,0l0,7.5z" id="path76" fill-rule="nonzero" fill="#0a0a0a"/>
   <path d="m60,22.5l7.5,0l0,-7.5l-7.5,0l0,7.5z" id="path78" fill-rule="nonzero" fill="#0a0a0a"/>
   <path d="m56.25,18.75l7.5,0l0,-7.5l-7.5,0l0,7.5z" id="path80" fill-rule="nonzero" fill="#0a0a0a"/>
   <path d="m52.5,15l7.5,0l0,-7.5l-7.5,0l0,7.5z" id="path82" fill-rule="nonzero" fill="#0a0a0a"/>
   <path d="m48.75,11.25l7.5,0l0,-7.5l-7.5,0l0,7.5z" id="path84" fill-rule="nonzero" fill="#0a0a0a"/>
   <path d="m60,78.75l7.5,0l0,-37.5l-7.5,0l0,37.5z" id="path86" fill-rule="nonzero" fill="#2a2ed1"/>
   <path d="m63.75,78.75l7.49875,0l0,-33.75l-7.49875,0l0,33.75z" id="path88" fill-rule="nonzero" fill="#2a2ed1"/>
   <path d="m67.5,75l7.5,0l0,-26.25l-7.5,0l0,26.25z" id="path90" fill-rule="nonzero" fill="#2a2ed1"/>
   <path d="m71.25,71.25l7.5,0l0,-18.75l-7.5,0l0,18.75z" id="path92" fill-rule="nonzero" fill="#2a2ed1"/>
   <path d="m75,67.5l7.5,0l0,-11.25l-7.5,0l0,11.25z" id="path94" fill-rule="nonzero" fill="#2a2ed1"/>
   <g id="g96">
    <path d="m48.75,56.25l-3.75,0l-3.75,0l0,3.75l3.75,0l0,3.75l3.75,0l0,-3.75l3.75,0l0,-3.75l-3.75,0z" id="path98" fill-rule="nonzero" fill="#0a0a0a"/>
   </g>
   <path d="m48.75,71.25l-3.75,0l0,-3.75l3.75,0l0,3.75z" id="path100" fill-rule="nonzero" fill="#ec008c"/>
   <path d="m111.20375,23.5975l4.1925,0l0,4.19125l-4.1925,0l0,-4.19125zm0,20.96l0,-8.38375l-4.1925,0l0,-4.19125l8.38374,0l0,12.575l-4.19125,0zm-8.38376,0l8.38376,0l0,4.1925l-8.38376,0l0,-4.1925zm0,-25.15125l8.38376,0l0,4.1925l-8.38376,0l0,-4.1925zm-4.19124,4.19125l4.19124,0l0,20.96l-4.19124,0l0,-20.96z" id="path102" fill-rule="nonzero" fill="#000000"/>
   <g id="g104">
    <path d="m119.58737,48.75l0,-4.1925l4.1925,0l0,-20.96l-4.1925,0l0,-4.19125l12.57625,0l0,4.19125l-4.19125,0l0,20.96l4.19125,0l0,4.1925l-12.57625,0z" id="path106" fill-rule="nonzero" fill="#000000"/>
   </g>
   <g id="g108">
    <path d="m136.35562,48.75l0,-29.34375l12.57626,0l0,4.19125l-8.38376,0l0,8.385l8.38376,0l0,4.19125l-8.38376,0l0,12.57625l-4.1925,0z" id="path110" fill-rule="nonzero" fill="#000000"/>
   </g>
   <path d="m169.89101,31.9825l4.19299,0l0,16.7675l-4.19299,0l0,-16.7675zm-4.19101,-4.1938l4.192,0l0,4.1926l-4.192,0l0,-4.1926zm-4.192,4.1938l4.192,0l0,16.7675l-4.192,0l0,-16.7675zm-8.384,16.7675l0,-20.9613l8.384,0l0,4.1938l-4.192,0l0,16.7675l-4.192,0l0,0z" id="path112" fill-rule="nonzero" fill="#ec008c"/>
   <path d="m182.4675,44.5575l12.57626,0l0,4.1925l-12.57626,0l0,-4.1925zm0,-16.76875l8.38376,0l0,4.1925l-8.38376,0l0,-4.1925zm-4.1925,16.76875l0,-12.575l4.1925,0l0,4.19125l8.38376,0l0,-4.19125l4.19124,0l0,8.38375l-12.575,0l0,4.19125l-4.1925,0z" id="path114" fill-rule="nonzero" fill="#ec008c"/>
   <g id="g116">
    <path d="m211.81024,23.598l-4.19249,0l0,4.19125l4.19249,0l0,4.19375l-8.38374,0l0,-12.5775l-4.1925,0l0,29.345l4.1925,0l0,-12.57625l8.38374,0l0,12.57625l4.19,0l0,-29.345l-4.19,0l0,4.1925z" id="path118" fill-rule="nonzero" fill="#2a2ed1"/>
   </g>
   <path d="m232.77,19.40625l-8.38374,0l0,4.1925l8.38374,0l0,-4.1925z" id="path120" fill-rule="nonzero" fill="#2a2ed1"/>
   <path d="m232.77,44.5575l4.19249,0l0,-20.96l-4.19249,0l0,20.96z" id="path122" fill-rule="nonzero" fill="#2a2ed1"/>
   <path d="m224.38626,48.75l8.38374,0l0,-4.1925l-8.38374,0l0,4.1925z" id="path124" fill-rule="nonzero" fill="#2a2ed1"/>
   <path d="m220.19376,44.5575l4.1925,0l0,-20.96l-4.1925,0l0,20.96z" id="path126" fill-rule="nonzero" fill="#2a2ed1"/>
   <path d="m249.53751,31.9825l4.19249,0l0,-4.1925l-4.19249,0l0,4.1925z" id="path128" fill-rule="nonzero" fill="#2a2ed1"/>
   <path d="m236.96124,19.40625l4.1925,0l0,-4.1925l-4.1925,0l0,4.1925z" id="path130" fill-rule="nonzero" fill="#2a2ed1"/>
   <g id="g132">
    <path d="m245.34549,23.598l0,-4.1925l-4.19249,0l0,29.345l4.19249,0l0,-20.96125l4.1925,0l0,-4.19125l-4.1925,0z" id="path134" fill-rule="nonzero" fill="#2a2ed1"/>
   </g>
   <g id="g136">
    <path d="m224.386,10.88263l4.1925,0l4.19124,0l0,-4.1925l-4.19124,0l-4.1925,0l0,4.1225l-4.19249,0l0,4.1925l4.19249,0l0,-4.1225z" id="path138" fill-rule="nonzero" fill="#2a2ed1"/>
   </g>
   <path d="m220.19376,15.21375l-4.19376,0l0,4.1925l4.19376,0l0,-4.1925z" id="path140" fill-rule="nonzero" fill="#2a2ed1"/>
   <g id="g142">
    <path d="m257.92111,23.598l-4.19249,0l0,4.19125l4.19249,0l0,20.96125l4.1925,0l0,-29.345l-4.1925,0l0,4.1925z" id="path144" fill-rule="nonzero" fill="#2a2ed1"/>
   </g>
   <path d="m232.77,15.21375l4.19249,0l0,-4.1925l-4.19249,0l0,4.1925z" id="path146" fill-rule="nonzero" fill="#2a2ed1"/>
   <g id="g148">
    <path d="m266.30438,19.40625l0,29.34375l12.57498,0l0,-4.1925l-8.38248,0l0,-8.3825l8.38248,0l0,-4.1925l-8.38248,0l0,-8.385l8.38248,0l0,-4.19125l-12.57498,0z" id="path150" fill-rule="nonzero" fill="#2a2ed1"/>
   </g>
  </g>
 </g>
</svg>